<?xml version="1.0" standalone="no"?><!DOCTYPE svg PUBLIC "-//W3C//DTD SVG 1.1//EN" "http://www.w3.org/Graphics/SVG/1.1/DTD/svg11.dtd"><svg t="1536896411151" class="icon" style="" viewBox="0 0 1024 1024" version="1.1" xmlns="http://www.w3.org/2000/svg" p-id="12575" data-spm-anchor-id="a313x.7781069.0.i13" xmlns:xlink="http://www.w3.org/1999/xlink" width="64" height="64"><defs><style type="text/css"></style></defs><path d="M986.947368 684.786526a20.210526 20.210526 0 0 1-37.995789-13.824A463.898947 463.898947 0 0 0 976.842105 512c0-256.727579-208.114526-464.842105-464.842105-464.842105C255.272421 47.157895 47.157895 255.272421 47.157895 512c0 256.727579 208.114526 464.842105 464.842105 464.842105 88.602947 0 173.514105-24.791579 246.891789-70.925473a20.210526 20.210526 0 1 1 21.504 34.223157A502.945684 502.945684 0 0 1 512 1017.263158C232.96 1017.263158 6.736842 791.04 6.736842 512S232.96 6.736842 512 6.736842 1017.263158 232.96 1017.263158 512c0 59.634526-10.347789 117.894737-30.31579 172.786526z" fill="#eeeeee" p-id="12576" data-spm-anchor-id="a313x.7781069.0.i18" class="selected"></path><path d="M871.397053 867.139368a20.210526 20.210526 0 1 1-28.752842-28.429473 467.159579 467.159579 0 0 0 57.451789-70.736842 20.210526 20.210526 0 0 1 33.711158 22.285473 507.580632 507.580632 0 0 1-62.410105 76.880842z" fill="#eeeeee" p-id="12577" data-spm-anchor-id="a313x.7781069.0.i20" class="selected"></path><path d="M653.204211 286.181053l-1.077895 15.36c-0.350316 5.200842-0.889263 10.509474-1.616842 15.898947h99.166315c7.194947 0 12.207158 1.616842 15.090527 4.850526 2.883368 3.233684 4.311579 8.084211 4.311579 14.551579 0 6.117053-1.428211 10.967579-4.311579 14.551579-2.883368 3.584-7.895579 5.389474-15.090527 5.389474h-8.623157a1881.034105 1881.034105 0 0 1-5.658948 81.92c-2.344421 25.141895-5.389474 48.693895-9.162105 70.602105-3.772632 21.908211-8.434526 42.496-14.012632 61.709474-5.578105 19.213474-12.126316 37.645474-19.671579 55.242105 8.272842 18.674526 17.785263 36.109474 28.564211 52.277895 10.778947 16.168421 22.986105 31.986526 36.648421 47.427368 6.817684 7.545263 10.590316 14.093474 11.317895 19.671579 0.727579 5.578105-1.077895 10.859789-5.389474 15.898948-3.233684 3.961263-7.895579 5.578105-14.012632 4.850526-6.117053-0.727579-11.668211-4.122947-16.707368-10.24-12.584421-15.090526-23.983158-29.830737-34.223158-44.193684-10.24-14.362947-19.482947-29.103158-27.755789-44.193685-8.973474 15.440842-19.132632 30.531368-30.450527 45.271579-11.317895 14.740211-23.983158 29.642105-37.995789 44.732632-7.895579 8.272842-14.551579 12.665263-19.941053 13.204211-5.389474 0.538947-10.051368-1.697684-14.012631-6.736843a16.761263 16.761263 0 0 1-3.233685-16.168421c1.805474-5.739789 5.928421-12.207158 12.39579-19.402105a528.168421 528.168421 0 0 0 41.498947-50.930526c11.856842-16.707368 22.285474-34.411789 31.258948-53.086316a493.406316 493.406316 0 0 1-22.096842-71.410526 702.437053 702.437053 0 0 1-13.473685-83.267369c-2.506105 7.895579-5.578105 15.629474-9.162105 23.174737-5.039158 11.506526-9.781895 19.321263-14.282105 23.444211-4.500211 4.122947-10.509474 4.230737-18.054737 0.269473a18.970947 18.970947 0 0 1-9.970526-13.743158c-1.266526-6.278737 0.619789-14.093474 5.658947-23.44421 6.467368-12.584421 12.476632-26.866526 18.054737-42.846316a579.449263 579.449263 0 0 0 25.330526-101.861053c2.694737-17.434947 4.230737-34.034526 4.581053-49.852631 0.727579-12.584421 1.967158-20.830316 3.772631-24.791579 1.805474-3.961263 6.656-5.928421 14.551579-5.928421 7.194947 0 12.126316 2.155789 14.821053 6.467368 2.694737 4.311579 3.691789 12.746105 2.964211 25.330527z m-35.031579 349.776842c5.389474 5.039158 7.356632 10.24 5.928421 15.629473-1.428211 5.389474-4.850526 11.317895-10.24 17.785264-8.973474 10.778947-18.243368 20.560842-27.75579 29.372631-9.512421 8.811789-19.860211 17.704421-30.989474 26.677895-6.817684 5.739789-14.362947 8.623158-22.635789 8.623158-8.973474 0-16.707368-3.853474-23.174737-11.587369-6.467368-7.733895-9.701053-19.132632-9.701052-34.223158v-113.178947c0-5.739789-2.883368-8.623158-8.623158-8.623158h-42.037895c-7.545263 0-11.317895 3.045053-11.317895 9.162105 0 26.947368-0.889263 49.583158-2.694737 67.907369-1.805474 18.324211-4.769684 33.953684-8.892631 46.888421-4.122947 12.934737-9.701053 24.064-16.707369 33.414737a196.176842 196.176842 0 0 1-26.138947 28.025263c-9.701053 8.973474-17.434947 13.662316-23.174737 14.012632-5.739789 0.350316-10.590316-1.967158-14.551579-7.006316-8.272842-11.129263-6.278737-21.746526 5.928421-31.797895 10.778947-8.623158 19.213474-16.976842 25.330527-25.061053 6.117053-8.084211 10.698105-17.866105 13.743157-29.372631 3.045053-11.506526 4.931368-25.788632 5.658948-42.846316 0.727579-17.057684 1.077895-38.534737 1.077895-64.404211 0-12.584421 3.853474-21.908211 11.587368-28.025263 7.733895-6.117053 18.405053-9.162105 32.067368-9.162105h55.511579c8.623158 0 15.710316 0.458105 21.288421 1.347368a26.947368 26.947368 0 0 1 13.204211 5.389474c3.233684 2.694737 5.470316 6.736842 6.736842 12.126316 1.266526 5.389474 1.886316 12.395789 1.886316 21.018947v112.64c0 4.311579 1.616842 5.039158 4.850526 2.15579 5.389474-4.661895 11.506526-10.051368 18.324211-16.168421a170.846316 170.846316 0 0 0 21.018947-23.174737c12.584421-15.090526 24.064-17.596632 34.492632-7.545263z m-100.244211-245.221053c4.661895 0 7.006316-3.422316 7.006316-10.24v-74.374737c0-7.194947 1.536-12.207158 4.581052-15.090526 3.045053-2.883368 8.003368-4.311579 14.821053-4.311579 6.817684 0 11.776 1.428211 14.821053 4.311579 3.045053 2.883368 4.581053 7.895579 4.581052 15.090526v75.452632c0 10.051368-0.997053 18.243368-2.96421 24.522105a31.663158 31.663158 0 0 1-9.162105 14.821053 33.630316 33.630316 0 0 1-16.168421 7.275789c-6.656 1.266526-14.470737 1.886316-23.444211 1.886316h-80.842105c-20.129684 0-34.034526-4.042105-41.768421-12.126316-7.733895-8.084211-11.587368-21.099789-11.587369-39.073684v-73.835789c0-7.545263 1.428211-12.665263 4.311579-15.36 2.883368-2.694737 7.895579-4.042105 15.090527-4.042106 6.117053 0 10.859789 1.428211 14.282105 4.311579 3.422316 2.883368 5.12 7.895579 5.12 15.090527v75.452631c0 6.817684 2.883368 10.24 8.623158 10.24h27.486315v-119.107368c0-7.895579 1.536-13.015579 4.581053-15.36 3.045053-2.344421 8.003368-3.503158 14.821053-3.503158 6.817684 0 11.776 1.347368 14.821052 4.042105 3.045053 2.694737 4.581053 7.626105 4.581053 14.821053v119.107368h26.408421z m-146.054737 38.265263a794.947368 794.947368 0 0 1-17.246316 38.265263c-5.739789 11.856842-11.856842 23.174737-18.32421 33.953685v250.610526c0 7.545263-1.536 12.746105-4.581053 15.629474-3.045053 2.883368-8.003368 4.311579-14.821052 4.311579-6.117053 0-10.859789-1.428211-14.282106-4.311579-3.422316-2.883368-5.12-7.895579-5.12-15.090527v-195.637894c-1.077895 1.428211-2.236632 2.775579-3.503158 4.042105s-2.425263 2.613895-3.503157 4.042105c-8.272842 8.623158-15.009684 13.204211-20.210527 13.743158-5.200842 0.538947-10.320842-1.697684-15.36-6.736842a17.704421 17.704421 0 0 1-5.389473-15.36c0.727579-5.928421 5.039158-12.853895 12.934736-20.749474 7.895579-7.895579 15.090526-16.168421 21.557895-24.791579 6.467368-8.623158 12.584421-17.866105 18.324211-27.755789 5.739789-9.889684 11.317895-20.48 16.707368-31.797895 5.389474-11.317895 10.967579-23.794526 16.707369-37.456842 6.117053-15.440842 15.279158-21.207579 27.486315-17.246316 7.194947 2.506105 11.129263 6.736842 11.856842 12.665263 0.727579 5.928421-0.350316 12.476632-3.233684 19.671579z m273.246316-72.218947a1062.615579 1062.615579 0 0 1-4.311579 20.48c2.883368 39.882105 6.817684 75.641263 11.856842 107.250526s11.506526 60.550737 19.402105 86.770527c9.350737-28.375579 16.357053-59.904 21.018948-94.585264 4.661895-34.681263 8.272842-74.644211 10.778947-119.915789h-58.745263z m-84.075789 122.341053c0 12.584421-6.278737 18.863158-18.863158 18.863157h-154.677895c-7.194947 0-12.207158-1.616842-15.090526-4.850526-2.883368-3.233684-4.311579-7.895579-4.311579-14.012631 0-6.117053 1.347368-10.967579 4.042105-14.551579 2.694737-3.584 7.814737-5.389474 15.36-5.389474h154.677895c7.194947 0 12.126316 1.805474 14.821052 5.389474 2.694737 3.584 4.042105 8.434526 4.042106 14.551579zM358.4 261.928421c6.467368 3.233684 10.24 7.006316 11.317895 11.317895 1.077895 4.311579-0.350316 11.129263-4.311579 20.48a391.922526 391.922526 0 0 1-30.450527 58.206316c-12.045474 19.051789-26.138947 37.914947-42.307368 56.589473-7.545263 8.623158-14.201263 13.392842-19.941053 14.282106-5.739789 0.889263-11.506526-1.697684-17.246315-7.814737a14.686316 14.686316 0 0 1-4.311579-14.012632c1.077895-5.389474 5.739789-12.746105 14.012631-22.096842 15.090526-15.818105 27.944421-32.606316 38.534737-50.391579 10.590316-17.785263 19.321263-34.762105 26.138947-50.930526 2.883368-7.194947 6.925474-12.314947 12.126316-15.36a16.276211 16.276211 0 0 1 16.437895-0.269474z" fill="#3f4d6b" p-id="12578" data-spm-anchor-id="a313x.7781069.0.i14" class=""></path></svg>